<svg id="レイヤー_1" data-name="レイヤー 1" xmlns="http://www.w3.org/2000/svg" viewBox="0 0 354.15 354.15"><defs><style>.cls-1{fill:#0fbb9f;}</style></defs><title>アートボード 1</title><path class="cls-1" d="M275.93,182.73a16.39,16.39,0,0,1,3,8.75H228.65c8.85-9,20.93-15.08,32.24-15.08C265.62,176.4,272.07,177.5,275.93,182.73Zm-42.21,81.91c-16.13,0-29.77-6.43-38.39-18.11-8.88-12-11.07-28.35-6-44.79,9.38-30.49,40.83-54.37,71.58-54.37,16.13,0,29.77,6.44,38.39,18.11,8.88,12,11.07,28.36,6,44.8l-2.11,6.85a5,5,0,0,1-4.45,3.4h-83a16.32,16.32,0,0,0,3,8.76c3.86,5.23,10.3,6.32,15,6.32H344.2A177.07,177.07,0,0,0,23.1,89.66H171.41c12.15,0,22.9,5.12,29.47,14,6.83,9.28,8.54,21.73,4.68,34.18-6.4,20.63-26.7,37.09-47.57,39.34l15.74,55.08c.77,2.28,3.88,4.39,5.36,4.39h5.34a48.29,48.29,0,0,0,27,29H179.1c-14.48,0-28.72-10.72-33.13-24.93l-.09-.31-18-63H109.15a5,5,0,0,0-4.46,3.4L86.13,240.8C81.72,255,67.48,265.73,53,265.73H31.72a2.42,2.42,0,0,1-2.34-3.4l6.94-22.39a5,5,0,0,1,4.37-3.24H53c1.51,0,4.69-2.18,5.41-4.49L83.3,151.88h0a5,5,0,0,1,4.45-3.4h65.4c10,0,21.49-9,24.66-19.19,1.08-3.49,1-6.61-.33-8.36-1.43-1.94-4.44-2.23-6.1-2.23H9.89A177.06,177.06,0,0,0,331,264.64Z"/></svg>